<mxfile host="app.diagrams.net" modified="2020-10-06T10:21:41.118Z" agent="5.0 (Macintosh; Intel Mac OS X 10_15_4) AppleWebKit/537.36 (KHTML, like Gecko) Chrome/85.0.4183.121 Safari/537.36" etag="RinHrni0BGxppHUHXWOq" version="13.7.7" type="github">
  <diagram id="zpevTUZmRH9cq61Luy6s" name="Page-1">
    <mxGraphModel dx="1186" dy="1841" grid="1" gridSize="10" guides="1" tooltips="1" connect="1" arrows="1" fold="1" page="1" pageScale="1" pageWidth="850" pageHeight="1100" math="0" shadow="0">
      <root>
        <mxCell id="0" />
        <mxCell id="1" parent="0" />
        <mxCell id="xM_pX049vuOvESMgtKZi-1" value="&lt;font style=&quot;font-size: 16px&quot;&gt;FiberRootNode&lt;/font&gt;" style="rounded=1;whiteSpace=wrap;html=1;strokeWidth=3;strokeColor=#6495ED;" vertex="1" parent="1">
          <mxGeometry x="417" y="-640" width="180" height="40" as="geometry" />
        </mxCell>
        <mxCell id="xM_pX049vuOvESMgtKZi-2" value="&lt;font style=&quot;font-size: 16px&quot;&gt;rootFiber&lt;/font&gt;" style="rounded=1;whiteSpace=wrap;html=1;strokeWidth=3;strokeColor=#6495ED;" vertex="1" parent="1">
          <mxGeometry x="327" y="-470" width="120" height="40" as="geometry" />
        </mxCell>
        <mxCell id="xM_pX049vuOvESMgtKZi-3" value="" style="endArrow=classic;html=1;exitX=0.25;exitY=1;exitDx=0;exitDy=0;entryX=0.25;entryY=0;entryDx=0;entryDy=0;" edge="1" parent="1" source="xM_pX049vuOvESMgtKZi-1" target="xM_pX049vuOvESMgtKZi-2">
          <mxGeometry relative="1" as="geometry">
            <mxPoint x="367" y="-360" as="sourcePoint" />
            <mxPoint x="467" y="-360" as="targetPoint" />
            <Array as="points" />
          </mxGeometry>
        </mxCell>
        <mxCell id="xM_pX049vuOvESMgtKZi-4" value="&lt;font style=&quot;font-size: 16px&quot;&gt;current&lt;/font&gt;" style="edgeLabel;resizable=0;html=1;align=center;verticalAlign=middle;" connectable="0" vertex="1" parent="xM_pX049vuOvESMgtKZi-3">
          <mxGeometry relative="1" as="geometry" />
        </mxCell>
        <mxCell id="xM_pX049vuOvESMgtKZi-5" value="" style="endArrow=none;dashed=1;html=1;dashPattern=1 3;strokeWidth=2;" edge="1" parent="1" source="xM_pX049vuOvESMgtKZi-26">
          <mxGeometry width="50" height="50" relative="1" as="geometry">
            <mxPoint x="520" y="-90" as="sourcePoint" />
            <mxPoint x="510" y="-810" as="targetPoint" />
          </mxGeometry>
        </mxCell>
        <mxCell id="xM_pX049vuOvESMgtKZi-6" value="&lt;h1&gt;页面显示的Fiber树&lt;/h1&gt;" style="text;html=1;strokeColor=none;fillColor=none;spacing=5;spacingTop=-20;whiteSpace=wrap;overflow=hidden;rounded=0;" vertex="1" parent="1">
          <mxGeometry x="300" y="-770" width="217" height="50" as="geometry" />
        </mxCell>
        <mxCell id="xM_pX049vuOvESMgtKZi-7" value="&lt;h1&gt;内存中构建的树&lt;/h1&gt;" style="text;html=1;strokeColor=none;fillColor=none;spacing=5;spacingTop=-20;whiteSpace=wrap;overflow=hidden;rounded=0;" vertex="1" parent="1">
          <mxGeometry x="530" y="-770" width="190" height="50" as="geometry" />
        </mxCell>
        <mxCell id="xM_pX049vuOvESMgtKZi-8" value="" style="endArrow=classic;html=1;exitX=0.5;exitY=1;exitDx=0;exitDy=0;" edge="1" parent="1" source="xM_pX049vuOvESMgtKZi-2" target="xM_pX049vuOvESMgtKZi-9">
          <mxGeometry width="50" height="50" relative="1" as="geometry">
            <mxPoint x="387" y="-420" as="sourcePoint" />
            <mxPoint x="387" y="-300" as="targetPoint" />
          </mxGeometry>
        </mxCell>
        <mxCell id="xM_pX049vuOvESMgtKZi-9" value="App" style="rounded=1;whiteSpace=wrap;html=1;strokeColor=#6495ED;strokeWidth=3;" vertex="1" parent="1">
          <mxGeometry x="327" y="-390" width="120" height="40" as="geometry" />
        </mxCell>
        <mxCell id="xM_pX049vuOvESMgtKZi-10" value="" style="endArrow=classic;html=1;exitX=0.5;exitY=1;exitDx=0;exitDy=0;" edge="1" parent="1" source="xM_pX049vuOvESMgtKZi-9" target="xM_pX049vuOvESMgtKZi-11">
          <mxGeometry width="50" height="50" relative="1" as="geometry">
            <mxPoint x="227" y="-420" as="sourcePoint" />
            <mxPoint x="387" y="-300" as="targetPoint" />
          </mxGeometry>
        </mxCell>
        <mxCell id="xM_pX049vuOvESMgtKZi-11" value="p" style="rounded=1;whiteSpace=wrap;html=1;strokeWidth=3;strokeColor=#6495ED;" vertex="1" parent="1">
          <mxGeometry x="327" y="-320" width="120" height="30" as="geometry" />
        </mxCell>
        <mxCell id="xM_pX049vuOvESMgtKZi-12" value="" style="endArrow=classic;html=1;exitX=0.5;exitY=1;exitDx=0;exitDy=0;" edge="1" parent="1" source="xM_pX049vuOvESMgtKZi-11" target="xM_pX049vuOvESMgtKZi-13">
          <mxGeometry width="50" height="50" relative="1" as="geometry">
            <mxPoint x="227" y="-420" as="sourcePoint" />
            <mxPoint x="387" y="-260" as="targetPoint" />
          </mxGeometry>
        </mxCell>
        <mxCell id="xM_pX049vuOvESMgtKZi-13" value="&lt;font style=&quot;font-size: 14px&quot;&gt;0&lt;/font&gt;" style="rounded=1;whiteSpace=wrap;html=1;strokeWidth=3;strokeColor=#6495ED;" vertex="1" parent="1">
          <mxGeometry x="327" y="-250" width="120" height="40" as="geometry" />
        </mxCell>
        <mxCell id="xM_pX049vuOvESMgtKZi-14" value="&lt;font style=&quot;font-size: 16px&quot;&gt;rootFiber&lt;/font&gt;" style="rounded=1;whiteSpace=wrap;html=1;strokeWidth=3;strokeColor=#6495ED;" vertex="1" parent="1">
          <mxGeometry x="580" y="-470" width="120" height="40" as="geometry" />
        </mxCell>
        <mxCell id="xM_pX049vuOvESMgtKZi-15" value="" style="endArrow=classic;html=1;exitX=0.5;exitY=1;exitDx=0;exitDy=0;" edge="1" parent="1" source="xM_pX049vuOvESMgtKZi-14" target="xM_pX049vuOvESMgtKZi-16">
          <mxGeometry width="50" height="50" relative="1" as="geometry">
            <mxPoint x="640" y="-420" as="sourcePoint" />
            <mxPoint x="640" y="-300" as="targetPoint" />
          </mxGeometry>
        </mxCell>
        <mxCell id="xM_pX049vuOvESMgtKZi-16" value="App" style="rounded=1;whiteSpace=wrap;html=1;strokeColor=#6495ED;strokeWidth=3;" vertex="1" parent="1">
          <mxGeometry x="580" y="-390" width="120" height="40" as="geometry" />
        </mxCell>
        <mxCell id="xM_pX049vuOvESMgtKZi-17" value="" style="endArrow=classic;html=1;exitX=0.5;exitY=1;exitDx=0;exitDy=0;" edge="1" parent="1" source="xM_pX049vuOvESMgtKZi-16" target="xM_pX049vuOvESMgtKZi-18">
          <mxGeometry width="50" height="50" relative="1" as="geometry">
            <mxPoint x="480" y="-420" as="sourcePoint" />
            <mxPoint x="640" y="-300" as="targetPoint" />
          </mxGeometry>
        </mxCell>
        <mxCell id="xM_pX049vuOvESMgtKZi-18" value="p" style="rounded=1;whiteSpace=wrap;html=1;strokeWidth=3;strokeColor=#6495ED;" vertex="1" parent="1">
          <mxGeometry x="580" y="-320" width="120" height="30" as="geometry" />
        </mxCell>
        <mxCell id="xM_pX049vuOvESMgtKZi-19" value="" style="endArrow=classic;html=1;exitX=0.5;exitY=1;exitDx=0;exitDy=0;" edge="1" parent="1" source="xM_pX049vuOvESMgtKZi-18" target="xM_pX049vuOvESMgtKZi-20">
          <mxGeometry width="50" height="50" relative="1" as="geometry">
            <mxPoint x="480" y="-420" as="sourcePoint" />
            <mxPoint x="640" y="-260" as="targetPoint" />
          </mxGeometry>
        </mxCell>
        <mxCell id="xM_pX049vuOvESMgtKZi-20" value="&lt;span style=&quot;font-size: 14px&quot;&gt;1&lt;/span&gt;" style="rounded=1;whiteSpace=wrap;html=1;strokeWidth=3;strokeColor=#6495ED;" vertex="1" parent="1">
          <mxGeometry x="580" y="-250" width="120" height="40" as="geometry" />
        </mxCell>
        <mxCell id="xM_pX049vuOvESMgtKZi-21" value="" style="endArrow=classic;startArrow=classic;html=1;entryX=0;entryY=0.5;entryDx=0;entryDy=0;exitX=1;exitY=0.5;exitDx=0;exitDy=0;" edge="1" parent="1" source="xM_pX049vuOvESMgtKZi-2" target="xM_pX049vuOvESMgtKZi-14">
          <mxGeometry width="50" height="50" relative="1" as="geometry">
            <mxPoint x="330" y="-420" as="sourcePoint" />
            <mxPoint x="380" y="-470" as="targetPoint" />
          </mxGeometry>
        </mxCell>
        <mxCell id="xM_pX049vuOvESMgtKZi-22" value="&lt;font style=&quot;font-size: 16px&quot;&gt;alternate&lt;/font&gt;" style="text;html=1;strokeColor=none;fillColor=none;align=center;verticalAlign=middle;whiteSpace=wrap;rounded=0;" vertex="1" parent="1">
          <mxGeometry x="490" y="-470" width="40" height="20" as="geometry" />
        </mxCell>
        <mxCell id="xM_pX049vuOvESMgtKZi-23" value="" style="endArrow=classic;startArrow=classic;html=1;entryX=0;entryY=0.5;entryDx=0;entryDy=0;exitX=1;exitY=0.5;exitDx=0;exitDy=0;" edge="1" parent="1">
          <mxGeometry width="50" height="50" relative="1" as="geometry">
            <mxPoint x="447" y="-370.5" as="sourcePoint" />
            <mxPoint x="580" y="-370.5" as="targetPoint" />
          </mxGeometry>
        </mxCell>
        <mxCell id="xM_pX049vuOvESMgtKZi-24" value="&lt;font style=&quot;font-size: 16px&quot;&gt;alternate&lt;/font&gt;" style="text;html=1;strokeColor=none;fillColor=none;align=center;verticalAlign=middle;whiteSpace=wrap;rounded=0;" vertex="1" parent="1">
          <mxGeometry x="490" y="-390" width="40" height="20" as="geometry" />
        </mxCell>
        <mxCell id="xM_pX049vuOvESMgtKZi-25" value="" style="endArrow=classic;startArrow=classic;html=1;entryX=0;entryY=0.5;entryDx=0;entryDy=0;exitX=1;exitY=0.5;exitDx=0;exitDy=0;" edge="1" parent="1">
          <mxGeometry width="50" height="50" relative="1" as="geometry">
            <mxPoint x="447" y="-300" as="sourcePoint" />
            <mxPoint x="580" y="-300" as="targetPoint" />
          </mxGeometry>
        </mxCell>
        <mxCell id="xM_pX049vuOvESMgtKZi-26" value="&lt;font style=&quot;font-size: 16px&quot;&gt;alternate&lt;/font&gt;" style="text;html=1;strokeColor=none;fillColor=none;align=center;verticalAlign=middle;whiteSpace=wrap;rounded=0;" vertex="1" parent="1">
          <mxGeometry x="490" y="-320" width="40" height="20" as="geometry" />
        </mxCell>
        <mxCell id="xM_pX049vuOvESMgtKZi-27" value="" style="endArrow=none;dashed=1;html=1;dashPattern=1 3;strokeWidth=2;" edge="1" parent="1" target="xM_pX049vuOvESMgtKZi-26">
          <mxGeometry width="50" height="50" relative="1" as="geometry">
            <mxPoint x="510" y="-90" as="sourcePoint" />
            <mxPoint x="520" y="-810" as="targetPoint" />
          </mxGeometry>
        </mxCell>
      </root>
    </mxGraphModel>
  </diagram>
</mxfile>
